<?xml version="1.0" encoding="UTF-8"?>
<svg id="Layer_2" data-name="Layer 2" xmlns="http://www.w3.org/2000/svg" viewBox="0 0 554 575.84">
  <defs>
    <style>
      .cls-1 {
        fill: #a97c50;
      }
    </style>
  </defs>
  <g id="Layer_1-2" data-name="Layer 1">
    <g>
      <polygon class="cls-1" points="136 135.84 136 249.84 94 249.84 94 167.84 69 167.84 69 135.84 136 135.84"/>
      <path class="cls-1" d="M262,269.84h1v227h-43v-94h-83v94h-42v-227h42v91h83v-47h0V123.37c-.79.01-61.2-.88-61.97-.88L240.7,0l82.69,124.84-61.39-.86v145.86Z"/>
      <path class="cls-1" d="M478.92,496.84h-45.76l-14.73-52h-71.5l-14.48,52h-45.51l72.04-227h49.3l70.65,227ZM408.41,406.84c-3.66-15.45-25.68-82.82-25.29-98h-1.14c0,13.2-22.45,84.02-25.79,98h52.22Z"/>
      <rect class="cls-1" y="171.84" width="38" height="78"/>
      <polygon class="cls-1" points="554 136.84 554 575.84 0 575.84 0 268.84 38 268.84 38 531.84 516 531.84 516 178.84 350 178.84 350 134.84 542 134.84 542 136.84 554 136.84"/>
    </g>
  </g>
</svg>